<svg width="505" height="455" viewBox="0 0 505 455" fill="none" xmlns="http://www.w3.org/2000/svg">
<line x1="503" y1="139.9" x2="503" y2="2.17271" stroke="white" stroke-width="4"/>
<line x1="367.273" y1="2.92725" x2="505" y2="2.92725" stroke="white" stroke-width="4"/>
<line x1="480.045" y1="116.945" x2="480.045" y2="25.1273" stroke="white" stroke-width="4"/>
<line x1="390.227" y1="23.1273" x2="482.045" y2="23.1273" stroke="white" stroke-width="4"/>
<line x1="2" y1="315.273" x2="2" y2="453" stroke="white" stroke-width="4"/>
<line x1="137.727" y1="452.245" x2="1.52588e-05" y2="452.245" stroke="white" stroke-width="4"/>
<line x1="24.9546" y1="338.227" x2="24.9546" y2="430.045" stroke="white" stroke-width="4"/>
<line x1="114.773" y1="432.045" x2="22.9545" y2="432.045" stroke="white" stroke-width="4"/>
<path d="M54.3324 109.38C51.7458 109.38 49.3591 108.78 47.1724 107.58C45.0124 106.353 43.2924 104.66 42.0124 102.5C40.7591 100.313 40.1324 97.86 40.1324 95.14C40.1324 92.42 40.7591 89.98 42.0124 87.82C43.2924 85.66 45.0124 83.98 47.1724 82.78C49.3591 81.5534 51.7458 80.94 54.3324 80.94C56.9458 80.94 59.3324 81.5534 61.4924 82.78C63.6791 83.98 65.3991 85.66 66.6524 87.82C67.9058 89.98 68.5324 92.42 68.5324 95.14C68.5324 97.86 67.9058 100.313 66.6524 102.5C65.3991 104.66 63.6791 106.353 61.4924 107.58C59.3324 108.78 56.9458 109.38 54.3324 109.38ZM54.3324 105.42C56.1724 105.42 57.8124 105.007 59.2524 104.18C60.6924 103.327 61.8124 102.127 62.6124 100.58C63.4391 99.0067 63.8524 97.1934 63.8524 95.14C63.8524 93.0867 63.4391 91.2867 62.6124 89.74C61.8124 88.1934 60.6924 87.0067 59.2524 86.18C57.8124 85.3534 56.1724 84.94 54.3324 84.94C52.4924 84.94 50.8524 85.3534 49.4124 86.18C47.9724 87.0067 46.8391 88.1934 46.0124 89.74C45.2124 91.2867 44.8124 93.0867 44.8124 95.14C44.8124 97.1934 45.2124 99.0067 46.0124 100.58C46.8391 102.127 47.9724 103.327 49.4124 104.18C50.8524 105.007 52.4924 105.42 54.3324 105.42ZM91.4102 109.46C89.6769 109.46 88.1169 109.153 86.7302 108.54C85.3702 107.9 84.2902 107.047 83.4902 105.98C82.6902 104.887 82.2636 103.673 82.2102 102.34H86.9302C87.0102 103.273 87.4502 104.06 88.2502 104.7C89.0769 105.313 90.1036 105.62 91.3302 105.62C92.6102 105.62 93.5969 105.38 94.2902 104.9C95.0102 104.393 95.3702 103.753 95.3702 102.98C95.3702 102.153 94.9702 101.54 94.1702 101.14C93.3969 100.74 92.1569 100.3 90.4502 99.82C88.7969 99.3667 87.4502 98.9267 86.4102 98.5C85.3702 98.0734 84.4636 97.42 83.6902 96.54C82.9436 95.66 82.5702 94.5 82.5702 93.06C82.5702 91.8867 82.9169 90.82 83.6102 89.86C84.3036 88.8734 85.2902 88.1 86.5702 87.54C87.8769 86.98 89.3702 86.7 91.0502 86.7C93.5569 86.7 95.5702 87.34 97.0902 88.62C98.6369 89.8734 99.4636 91.5934 99.5702 93.78H95.0102C94.9302 92.7934 94.5302 92.0067 93.8102 91.42C93.0902 90.8334 92.1169 90.54 90.8902 90.54C89.6902 90.54 88.7702 90.7667 88.1302 91.22C87.4902 91.6734 87.1702 92.2734 87.1702 93.02C87.1702 93.6067 87.3836 94.1 87.8102 94.5C88.2369 94.9 88.7569 95.22 89.3702 95.46C89.9836 95.6734 90.8902 95.9534 92.0902 96.3C93.6902 96.7267 94.9969 97.1667 96.0102 97.62C97.0502 98.0467 97.9436 98.6867 98.6902 99.54C99.4369 100.393 99.8236 101.527 99.8502 102.94C99.8502 104.193 99.5036 105.313 98.8102 106.3C98.1169 107.287 97.1302 108.06 95.8502 108.62C94.5969 109.18 93.1169 109.46 91.4102 109.46ZM124.977 97.54C124.977 98.3667 124.924 99.1134 124.817 99.78H107.977C108.111 101.54 108.764 102.953 109.937 104.02C111.111 105.087 112.551 105.62 114.257 105.62C116.711 105.62 118.444 104.593 119.457 102.54H124.377C123.711 104.567 122.497 106.233 120.737 107.54C119.004 108.82 116.844 109.46 114.257 109.46C112.151 109.46 110.257 108.993 108.577 108.06C106.924 107.1 105.617 105.767 104.657 104.06C103.724 102.327 103.257 100.327 103.257 98.06C103.257 95.7934 103.711 93.8067 104.617 92.1C105.551 90.3667 106.844 89.0334 108.497 88.1C110.177 87.1667 112.097 86.7 114.257 86.7C116.337 86.7 118.191 87.1534 119.817 88.06C121.444 88.9667 122.711 90.2467 123.617 91.9C124.524 93.5267 124.977 95.4067 124.977 97.54ZM120.217 96.1C120.191 94.42 119.591 93.0734 118.417 92.06C117.244 91.0467 115.791 90.54 114.057 90.54C112.484 90.54 111.137 91.0467 110.017 92.06C108.897 93.0467 108.231 94.3934 108.017 96.1H120.217ZM149.425 87.06V109.1H144.865V106.5C144.145 107.407 143.198 108.127 142.025 108.66C140.878 109.167 139.652 109.42 138.345 109.42C136.612 109.42 135.052 109.06 133.665 108.34C132.305 107.62 131.225 106.553 130.425 105.14C129.652 103.727 129.265 102.02 129.265 100.02V87.06H133.785V99.34C133.785 101.313 134.278 102.833 135.265 103.9C136.252 104.94 137.598 105.46 139.305 105.46C141.012 105.46 142.358 104.94 143.345 103.9C144.358 102.833 144.865 101.313 144.865 99.34V87.06H149.425ZM170.392 90.3C171.165 89.2867 172.219 88.4334 173.552 87.74C174.885 87.0467 176.392 86.7 178.072 86.7C179.992 86.7 181.739 87.18 183.312 88.14C184.912 89.0734 186.165 90.3934 187.072 92.1C187.979 93.8067 188.432 95.7667 188.432 97.98C188.432 100.193 187.979 102.18 187.072 103.94C186.165 105.673 184.912 107.033 183.312 108.02C181.739 108.98 179.992 109.46 178.072 109.46C176.392 109.46 174.899 109.127 173.592 108.46C172.285 107.767 171.219 106.913 170.392 105.9V119.58H165.832V87.06H170.392V90.3ZM183.792 97.98C183.792 96.46 183.472 95.1534 182.832 94.06C182.219 92.94 181.392 92.1 180.352 91.54C179.339 90.9534 178.245 90.66 177.072 90.66C175.925 90.66 174.832 90.9534 173.792 91.54C172.779 92.1267 171.952 92.98 171.312 94.1C170.699 95.22 170.392 96.54 170.392 98.06C170.392 99.58 170.699 100.913 171.312 102.06C171.952 103.18 172.779 104.033 173.792 104.62C174.832 105.207 175.925 105.5 177.072 105.5C178.245 105.5 179.339 105.207 180.352 104.62C181.392 104.007 182.219 103.127 182.832 101.98C183.472 100.833 183.792 99.5 183.792 97.98ZM197.501 90.26C198.168 89.14 199.048 88.2734 200.141 87.66C201.261 87.02 202.581 86.7 204.101 86.7V91.42H202.941C201.155 91.42 199.795 91.8734 198.861 92.78C197.955 93.6867 197.501 95.26 197.501 97.5V109.1H192.941V87.06H197.501V90.26ZM210.613 84.14C209.786 84.14 209.093 83.86 208.533 83.3C207.973 82.74 207.693 82.0467 207.693 81.22C207.693 80.3934 207.973 79.7 208.533 79.14C209.093 78.58 209.786 78.3 210.613 78.3C211.413 78.3 212.093 78.58 212.653 79.14C213.213 79.7 213.493 80.3934 213.493 81.22C213.493 82.0467 213.213 82.74 212.653 83.3C212.093 83.86 211.413 84.14 210.613 84.14ZM212.853 87.06V109.1H208.293V87.06H212.853ZM245.52 86.7C247.253 86.7 248.8 87.06 250.16 87.78C251.547 88.5 252.627 89.5667 253.4 90.98C254.2 92.3934 254.6 94.1 254.6 96.1V109.1H250.08V96.78C250.08 94.8067 249.587 93.3 248.6 92.26C247.613 91.1934 246.267 90.66 244.56 90.66C242.853 90.66 241.493 91.1934 240.48 92.26C239.493 93.3 239 94.8067 239 96.78V109.1H234.48V96.78C234.48 94.8067 233.987 93.3 233 92.26C232.013 91.1934 230.667 90.66 228.96 90.66C227.253 90.66 225.893 91.1934 224.88 92.26C223.893 93.3 223.4 94.8067 223.4 96.78V109.1H218.84V87.06H223.4V89.58C224.147 88.6734 225.093 87.9667 226.24 87.46C227.387 86.9534 228.613 86.7 229.92 86.7C231.68 86.7 233.253 87.0734 234.64 87.82C236.027 88.5667 237.093 89.6467 237.84 91.06C238.507 89.7267 239.547 88.6734 240.96 87.9C242.373 87.1 243.893 86.7 245.52 86.7ZM280.602 97.54C280.602 98.3667 280.549 99.1134 280.442 99.78H263.602C263.736 101.54 264.389 102.953 265.562 104.02C266.736 105.087 268.176 105.62 269.882 105.62C272.336 105.62 274.069 104.593 275.082 102.54H280.002C279.336 104.567 278.122 106.233 276.362 107.54C274.629 108.82 272.469 109.46 269.882 109.46C267.776 109.46 265.882 108.993 264.202 108.06C262.549 107.1 261.242 105.767 260.282 104.06C259.349 102.327 258.882 100.327 258.882 98.06C258.882 95.7934 259.336 93.8067 260.242 92.1C261.176 90.3667 262.469 89.0334 264.122 88.1C265.802 87.1667 267.722 86.7 269.882 86.7C271.962 86.7 273.816 87.1534 275.442 88.06C277.069 88.9667 278.336 90.2467 279.242 91.9C280.149 93.5267 280.602 95.4067 280.602 97.54ZM275.842 96.1C275.816 94.42 275.216 93.0734 274.042 92.06C272.869 91.0467 271.416 90.54 269.682 90.54C268.109 90.54 266.762 91.0467 265.642 92.06C264.522 93.0467 263.856 94.3934 263.642 96.1H275.842ZM287.41 84.14C286.583 84.14 285.89 83.86 285.33 83.3C284.77 82.74 284.49 82.0467 284.49 81.22C284.49 80.3934 284.77 79.7 285.33 79.14C285.89 78.58 286.583 78.3 287.41 78.3C288.21 78.3 288.89 78.58 289.45 79.14C290.01 79.7 290.29 80.3934 290.29 81.22C290.29 82.0467 290.01 82.74 289.45 83.3C288.89 83.86 288.21 84.14 287.41 84.14ZM289.65 87.06V109.1H285.09V87.06H289.65ZM300.197 90.26C300.863 89.14 301.743 88.2734 302.837 87.66C303.957 87.02 305.277 86.7 306.797 86.7V91.42H305.637C303.85 91.42 302.49 91.8734 301.557 92.78C300.65 93.6867 300.197 95.26 300.197 97.5V109.1H295.637V87.06H300.197V90.26ZM320.548 109.46C318.468 109.46 316.588 108.993 314.908 108.06C313.228 107.1 311.908 105.767 310.948 104.06C309.988 102.327 309.508 100.327 309.508 98.06C309.508 95.82 310.002 93.8334 310.988 92.1C311.975 90.3667 313.322 89.0334 315.028 88.1C316.735 87.1667 318.642 86.7 320.748 86.7C322.855 86.7 324.762 87.1667 326.468 88.1C328.175 89.0334 329.522 90.3667 330.508 92.1C331.495 93.8334 331.988 95.82 331.988 98.06C331.988 100.3 331.482 102.287 330.468 104.02C329.455 105.753 328.068 107.1 326.308 108.06C324.575 108.993 322.655 109.46 320.548 109.46ZM320.548 105.5C321.722 105.5 322.815 105.22 323.828 104.66C324.868 104.1 325.708 103.26 326.348 102.14C326.988 101.02 327.308 99.66 327.308 98.06C327.308 96.46 327.002 95.1134 326.388 94.02C325.775 92.9 324.962 92.06 323.948 91.5C322.935 90.94 321.842 90.66 320.668 90.66C319.495 90.66 318.402 90.94 317.388 91.5C316.402 92.06 315.615 92.9 315.028 94.02C314.442 95.1134 314.148 96.46 314.148 98.06C314.148 100.433 314.748 102.273 315.948 103.58C317.175 104.86 318.708 105.5 320.548 105.5ZM351.447 90.3C352.22 89.2867 353.273 88.4334 354.607 87.74C355.94 87.0467 357.447 86.7 359.127 86.7C361.047 86.7 362.793 87.18 364.367 88.14C365.967 89.0734 367.22 90.3934 368.127 92.1C369.033 93.8067 369.487 95.7667 369.487 97.98C369.487 100.193 369.033 102.18 368.127 103.94C367.22 105.673 365.967 107.033 364.367 108.02C362.793 108.98 361.047 109.46 359.127 109.46C357.447 109.46 355.953 109.127 354.647 108.46C353.34 107.767 352.273 106.913 351.447 105.9V119.58H346.887V87.06H351.447V90.3ZM364.847 97.98C364.847 96.46 364.527 95.1534 363.887 94.06C363.273 92.94 362.447 92.1 361.407 91.54C360.393 90.9534 359.3 90.66 358.127 90.66C356.98 90.66 355.887 90.9534 354.847 91.54C353.833 92.1267 353.007 92.98 352.367 94.1C351.753 95.22 351.447 96.54 351.447 98.06C351.447 99.58 351.753 100.913 352.367 102.06C353.007 103.18 353.833 104.033 354.847 104.62C355.887 105.207 356.98 105.5 358.127 105.5C359.3 105.5 360.393 105.207 361.407 104.62C362.447 104.007 363.273 103.127 363.887 101.98C364.527 100.833 364.847 99.5 364.847 97.98ZM372.476 97.98C372.476 95.7667 372.929 93.8067 373.836 92.1C374.769 90.3934 376.023 89.0734 377.596 88.14C379.196 87.18 380.956 86.7 382.876 86.7C384.609 86.7 386.116 87.0467 387.396 87.74C388.703 88.4067 389.743 89.2467 390.516 90.26V87.06H395.116V109.1H390.516V105.82C389.743 106.86 388.689 107.727 387.356 108.42C386.023 109.113 384.503 109.46 382.796 109.46C380.903 109.46 379.169 108.98 377.596 108.02C376.023 107.033 374.769 105.673 373.836 103.94C372.929 102.18 372.476 100.193 372.476 97.98ZM390.516 98.06C390.516 96.54 390.196 95.22 389.556 94.1C388.943 92.98 388.129 92.1267 387.116 91.54C386.103 90.9534 385.009 90.66 383.836 90.66C382.663 90.66 381.569 90.9534 380.556 91.54C379.543 92.1 378.716 92.94 378.076 94.06C377.463 95.1534 377.156 96.46 377.156 97.98C377.156 99.5 377.463 100.833 378.076 101.98C378.716 103.127 379.543 104.007 380.556 104.62C381.596 105.207 382.689 105.5 383.836 105.5C385.009 105.5 386.103 105.207 387.116 104.62C388.129 104.033 388.943 103.18 389.556 102.06C390.196 100.913 390.516 99.58 390.516 98.06ZM409.106 109.46C407.372 109.46 405.812 109.153 404.426 108.54C403.066 107.9 401.986 107.047 401.186 105.98C400.386 104.887 399.959 103.673 399.906 102.34H404.626C404.706 103.273 405.146 104.06 405.946 104.7C406.772 105.313 407.799 105.62 409.026 105.62C410.306 105.62 411.292 105.38 411.986 104.9C412.706 104.393 413.066 103.753 413.066 102.98C413.066 102.153 412.666 101.54 411.866 101.14C411.092 100.74 409.852 100.3 408.146 99.82C406.492 99.3667 405.146 98.9267 404.106 98.5C403.066 98.0734 402.159 97.42 401.386 96.54C400.639 95.66 400.266 94.5 400.266 93.06C400.266 91.8867 400.612 90.82 401.306 89.86C401.999 88.8734 402.986 88.1 404.266 87.54C405.572 86.98 407.066 86.7 408.746 86.7C411.252 86.7 413.266 87.34 414.786 88.62C416.332 89.8734 417.159 91.5934 417.266 93.78H412.706C412.626 92.7934 412.226 92.0067 411.506 91.42C410.786 90.8334 409.812 90.54 408.586 90.54C407.386 90.54 406.466 90.7667 405.826 91.22C405.186 91.6734 404.866 92.2734 404.866 93.02C404.866 93.6067 405.079 94.1 405.506 94.5C405.932 94.9 406.452 95.22 407.066 95.46C407.679 95.6734 408.586 95.9534 409.786 96.3C411.386 96.7267 412.692 97.1667 413.706 97.62C414.746 98.0467 415.639 98.6867 416.386 99.54C417.132 100.393 417.519 101.527 417.546 102.94C417.546 104.193 417.199 105.313 416.506 106.3C415.812 107.287 414.826 108.06 413.546 108.62C412.292 109.18 410.812 109.46 409.106 109.46ZM430.473 109.46C428.739 109.46 427.179 109.153 425.793 108.54C424.433 107.9 423.353 107.047 422.553 105.98C421.753 104.887 421.326 103.673 421.273 102.34H425.993C426.073 103.273 426.513 104.06 427.313 104.7C428.139 105.313 429.166 105.62 430.393 105.62C431.673 105.62 432.659 105.38 433.353 104.9C434.073 104.393 434.433 103.753 434.433 102.98C434.433 102.153 434.033 101.54 433.233 101.14C432.459 100.74 431.219 100.3 429.513 99.82C427.859 99.3667 426.513 98.9267 425.473 98.5C424.433 98.0734 423.526 97.42 422.753 96.54C422.006 95.66 421.633 94.5 421.633 93.06C421.633 91.8867 421.979 90.82 422.673 89.86C423.366 88.8734 424.353 88.1 425.633 87.54C426.939 86.98 428.433 86.7 430.113 86.7C432.619 86.7 434.633 87.34 436.153 88.62C437.699 89.8734 438.526 91.5934 438.633 93.78H434.073C433.993 92.7934 433.593 92.0067 432.873 91.42C432.153 90.8334 431.179 90.54 429.953 90.54C428.753 90.54 427.833 90.7667 427.193 91.22C426.553 91.6734 426.233 92.2734 426.233 93.02C426.233 93.6067 426.446 94.1 426.873 94.5C427.299 94.9 427.819 95.22 428.433 95.46C429.046 95.6734 429.953 95.9534 431.153 96.3C432.753 96.7267 434.059 97.1667 435.073 97.62C436.113 98.0467 437.006 98.6867 437.753 99.54C438.499 100.393 438.886 101.527 438.913 102.94C438.913 104.193 438.566 105.313 437.873 106.3C437.179 107.287 436.193 108.06 434.913 108.62C433.659 109.18 432.179 109.46 430.473 109.46ZM453.4 109.46C451.32 109.46 449.44 108.993 447.76 108.06C446.08 107.1 444.76 105.767 443.8 104.06C442.84 102.327 442.36 100.327 442.36 98.06C442.36 95.82 442.853 93.8334 443.84 92.1C444.827 90.3667 446.173 89.0334 447.88 88.1C449.587 87.1667 451.493 86.7 453.6 86.7C455.707 86.7 457.613 87.1667 459.32 88.1C461.027 89.0334 462.373 90.3667 463.36 92.1C464.347 93.8334 464.84 95.82 464.84 98.06C464.84 100.3 464.333 102.287 463.32 104.02C462.307 105.753 460.92 107.1 459.16 108.06C457.427 108.993 455.507 109.46 453.4 109.46ZM453.4 105.5C454.573 105.5 455.667 105.22 456.68 104.66C457.72 104.1 458.56 103.26 459.2 102.14C459.84 101.02 460.16 99.66 460.16 98.06C460.16 96.46 459.853 95.1134 459.24 94.02C458.627 92.9 457.813 92.06 456.8 91.5C455.787 90.94 454.693 90.66 453.52 90.66C452.347 90.66 451.253 90.94 450.24 91.5C449.253 92.06 448.467 92.9 447.88 94.02C447.293 95.1134 447 96.46 447 98.06C447 100.433 447.6 102.273 448.8 103.58C450.027 104.86 451.56 105.5 453.4 105.5ZM174.684 157.54C174.684 158.367 174.631 159.113 174.524 159.78H157.684C157.818 161.54 158.471 162.953 159.644 164.02C160.818 165.087 162.258 165.62 163.964 165.62C166.418 165.62 168.151 164.593 169.164 162.54H174.084C173.418 164.567 172.204 166.233 170.444 167.54C168.711 168.82 166.551 169.46 163.964 169.46C161.858 169.46 159.964 168.993 158.284 168.06C156.631 167.1 155.324 165.767 154.364 164.06C153.431 162.327 152.964 160.327 152.964 158.06C152.964 155.793 153.418 153.807 154.324 152.1C155.258 150.367 156.551 149.033 158.204 148.1C159.884 147.167 161.804 146.7 163.964 146.7C166.044 146.7 167.898 147.153 169.524 148.06C171.151 148.967 172.418 150.247 173.324 151.9C174.231 153.527 174.684 155.407 174.684 157.54ZM169.924 156.1C169.898 154.42 169.298 153.073 168.124 152.06C166.951 151.047 165.498 150.54 163.764 150.54C162.191 150.54 160.844 151.047 159.724 152.06C158.604 153.047 157.938 154.393 157.724 156.1H169.924ZM187.172 169.46C185.439 169.46 183.879 169.153 182.492 168.54C181.132 167.9 180.052 167.047 179.252 165.98C178.452 164.887 178.025 163.673 177.972 162.34H182.692C182.772 163.273 183.212 164.06 184.012 164.7C184.839 165.313 185.865 165.62 187.092 165.62C188.372 165.62 189.359 165.38 190.052 164.9C190.772 164.393 191.132 163.753 191.132 162.98C191.132 162.153 190.732 161.54 189.932 161.14C189.159 160.74 187.919 160.3 186.212 159.82C184.559 159.367 183.212 158.927 182.172 158.5C181.132 158.073 180.225 157.42 179.452 156.54C178.705 155.66 178.332 154.5 178.332 153.06C178.332 151.887 178.679 150.82 179.372 149.86C180.065 148.873 181.052 148.1 182.332 147.54C183.639 146.98 185.132 146.7 186.812 146.7C189.319 146.7 191.332 147.34 192.852 148.62C194.399 149.873 195.225 151.593 195.332 153.78H190.772C190.692 152.793 190.292 152.007 189.572 151.42C188.852 150.833 187.879 150.54 186.652 150.54C185.452 150.54 184.532 150.767 183.892 151.22C183.252 151.673 182.932 152.273 182.932 153.02C182.932 153.607 183.145 154.1 183.572 154.5C183.999 154.9 184.519 155.22 185.132 155.46C185.745 155.673 186.652 155.953 187.852 156.3C189.452 156.727 190.759 157.167 191.772 157.62C192.812 158.047 193.705 158.687 194.452 159.54C195.199 160.393 195.585 161.527 195.612 162.94C195.612 164.193 195.265 165.313 194.572 166.3C193.879 167.287 192.892 168.06 191.612 168.62C190.359 169.18 188.879 169.46 187.172 169.46ZM205.859 150.78V162.98C205.859 163.807 206.046 164.407 206.419 164.78C206.819 165.127 207.486 165.3 208.419 165.3H211.219V169.1H207.619C205.566 169.1 203.992 168.62 202.899 167.66C201.806 166.7 201.259 165.14 201.259 162.98V150.78H198.659V147.06H201.259V141.58H205.859V147.06H211.219V150.78H205.859ZM213.902 157.98C213.902 155.767 214.355 153.807 215.262 152.1C216.195 150.393 217.449 149.073 219.022 148.14C220.622 147.18 222.382 146.7 224.302 146.7C226.035 146.7 227.542 147.047 228.822 147.74C230.129 148.407 231.169 149.247 231.942 150.26V147.06H236.542V169.1H231.942V165.82C231.169 166.86 230.115 167.727 228.782 168.42C227.449 169.113 225.929 169.46 224.222 169.46C222.329 169.46 220.595 168.98 219.022 168.02C217.449 167.033 216.195 165.673 215.262 163.94C214.355 162.18 213.902 160.193 213.902 157.98ZM231.942 158.06C231.942 156.54 231.622 155.22 230.982 154.1C230.369 152.98 229.555 152.127 228.542 151.54C227.529 150.953 226.435 150.66 225.262 150.66C224.089 150.66 222.995 150.953 221.982 151.54C220.969 152.1 220.142 152.94 219.502 154.06C218.889 155.153 218.582 156.46 218.582 157.98C218.582 159.5 218.889 160.833 219.502 161.98C220.142 163.127 220.969 164.007 221.982 164.62C223.022 165.207 224.115 165.5 225.262 165.5C226.435 165.5 227.529 165.207 228.542 164.62C229.555 164.033 230.369 163.18 230.982 162.06C231.622 160.913 231.942 159.58 231.942 158.06ZM230.102 141.14L221.262 145.5V142.14L230.102 137.26V141.14ZM251.402 157.98C251.402 155.767 251.855 153.807 252.762 152.1C253.695 150.393 254.949 149.073 256.522 148.14C258.122 147.18 259.882 146.7 261.802 146.7C263.535 146.7 265.042 147.047 266.322 147.74C267.629 148.407 268.669 149.247 269.442 150.26V147.06H274.042V169.1H269.442V165.82C268.669 166.86 267.615 167.727 266.282 168.42C264.949 169.113 263.429 169.46 261.722 169.46C259.829 169.46 258.095 168.98 256.522 168.02C254.949 167.033 253.695 165.673 252.762 163.94C251.855 162.18 251.402 160.193 251.402 157.98ZM269.442 158.06C269.442 156.54 269.122 155.22 268.482 154.1C267.869 152.98 267.055 152.127 266.042 151.54C265.029 150.953 263.935 150.66 262.762 150.66C261.589 150.66 260.495 150.953 259.482 151.54C258.469 152.1 257.642 152.94 257.002 154.06C256.389 155.153 256.082 156.46 256.082 157.98C256.082 159.5 256.389 160.833 257.002 161.98C257.642 163.127 258.469 164.007 259.482 164.62C260.522 165.207 261.615 165.5 262.762 165.5C263.935 165.5 265.029 165.207 266.042 164.62C267.055 164.033 267.869 163.18 268.482 162.06C269.122 160.913 269.442 159.58 269.442 158.06ZM278.511 157.98C278.511 155.767 278.965 153.807 279.871 152.1C280.805 150.393 282.058 149.073 283.631 148.14C285.231 147.18 287.005 146.7 288.951 146.7C290.658 146.7 292.165 147.047 293.471 147.74C294.805 148.433 295.831 149.273 296.551 150.26V147.06H301.151V179.58H296.551V165.9C295.831 166.887 294.791 167.727 293.431 168.42C292.071 169.113 290.525 169.46 288.791 169.46C286.898 169.46 285.165 168.98 283.591 168.02C282.045 167.033 280.805 165.673 279.871 163.94C278.965 162.18 278.511 160.193 278.511 157.98ZM296.551 158.06C296.551 156.54 296.231 155.22 295.591 154.1C294.978 152.98 294.165 152.127 293.151 151.54C292.138 150.953 291.045 150.66 289.871 150.66C288.698 150.66 287.605 150.953 286.591 151.54C285.578 152.1 284.751 152.94 284.111 154.06C283.498 155.153 283.191 156.46 283.191 157.98C283.191 159.5 283.498 160.833 284.111 161.98C284.751 163.127 285.578 164.007 286.591 164.62C287.631 165.207 288.725 165.5 289.871 165.5C291.045 165.5 292.138 165.207 293.151 164.62C294.165 164.033 294.978 163.18 295.591 162.06C296.231 160.913 296.551 159.58 296.551 158.06ZM327.101 147.06V169.1H322.541V166.5C321.821 167.407 320.874 168.127 319.701 168.66C318.554 169.167 317.327 169.42 316.021 169.42C314.287 169.42 312.727 169.06 311.341 168.34C309.981 167.62 308.901 166.553 308.101 165.14C307.327 163.727 306.941 162.02 306.941 160.02V147.06H311.461V159.34C311.461 161.313 311.954 162.833 312.941 163.9C313.927 164.94 315.274 165.46 316.981 165.46C318.687 165.46 320.034 164.94 321.021 163.9C322.034 162.833 322.541 161.313 322.541 159.34V147.06H327.101ZM335.437 144.14C334.611 144.14 333.917 143.86 333.357 143.3C332.797 142.74 332.517 142.047 332.517 141.22C332.517 140.393 332.797 139.7 333.357 139.14C333.917 138.58 334.611 138.3 335.437 138.3C336.237 138.3 336.917 138.58 337.477 139.14C338.037 139.7 338.317 140.393 338.317 141.22C338.317 142.047 338.037 142.74 337.477 143.3C336.917 143.86 336.237 144.14 335.437 144.14ZM337.677 147.06V169.1H333.117V147.06H337.677ZM349.384 141.3L348.864 160.7H345.064L344.544 141.3H349.384ZM347.104 169.38C346.277 169.38 345.584 169.1 345.024 168.54C344.464 167.98 344.184 167.287 344.184 166.46C344.184 165.633 344.464 164.94 345.024 164.38C345.584 163.82 346.277 163.54 347.104 163.54C347.904 163.54 348.584 163.82 349.144 164.38C349.704 164.94 349.984 165.633 349.984 166.46C349.984 167.287 349.704 167.98 349.144 168.54C348.584 169.1 347.904 169.38 347.104 169.38Z" fill="white"/>
<path d="M77.3305 269.389C74.7438 269.389 72.3571 268.789 70.1705 267.589C68.0105 266.362 66.2905 264.669 65.0105 262.509C63.7571 260.322 63.1305 257.869 63.1305 255.149C63.1305 252.429 63.7571 249.989 65.0105 247.829C66.2905 245.669 68.0105 243.989 70.1705 242.789C72.3571 241.562 74.7438 240.949 77.3305 240.949C79.9438 240.949 82.3305 241.562 84.4905 242.789C86.6772 243.989 88.3972 245.669 89.6505 247.829C90.9038 249.989 91.5305 252.429 91.5305 255.149C91.5305 257.869 90.9038 260.322 89.6505 262.509C88.3972 264.669 86.6772 266.362 84.4905 267.589C82.3305 268.789 79.9438 269.389 77.3305 269.389ZM77.3305 265.429C79.1705 265.429 80.8105 265.016 82.2505 264.189C83.6905 263.336 84.8105 262.136 85.6105 260.589C86.4372 259.016 86.8505 257.202 86.8505 255.149C86.8505 253.096 86.4372 251.296 85.6105 249.749C84.8105 248.202 83.6905 247.016 82.2505 246.189C80.8105 245.362 79.1705 244.949 77.3305 244.949C75.4905 244.949 73.8505 245.362 72.4105 246.189C70.9705 247.016 69.8371 248.202 69.0105 249.749C68.2105 251.296 67.8105 253.096 67.8105 255.149C67.8105 257.202 68.2105 259.016 69.0105 260.589C69.8371 262.136 70.9705 263.336 72.4105 264.189C73.8505 265.016 75.4905 265.429 77.3305 265.429ZM100.578 250.309C101.351 249.296 102.404 248.442 103.738 247.749C105.071 247.056 106.578 246.709 108.258 246.709C110.178 246.709 111.924 247.189 113.498 248.149C115.098 249.082 116.351 250.402 117.258 252.109C118.164 253.816 118.618 255.776 118.618 257.989C118.618 260.202 118.164 262.189 117.258 263.949C116.351 265.682 115.098 267.042 113.498 268.029C111.924 268.989 110.178 269.469 108.258 269.469C106.578 269.469 105.084 269.136 103.778 268.469C102.471 267.776 101.404 266.922 100.578 265.909V279.589H96.0177V247.069H100.578V250.309ZM113.978 257.989C113.978 256.469 113.658 255.162 113.018 254.069C112.404 252.949 111.578 252.109 110.538 251.549C109.524 250.962 108.431 250.669 107.258 250.669C106.111 250.669 105.018 250.962 103.978 251.549C102.964 252.136 102.138 252.989 101.498 254.109C100.884 255.229 100.578 256.549 100.578 258.069C100.578 259.589 100.884 260.922 101.498 262.069C102.138 263.189 102.964 264.042 103.978 264.629C105.018 265.216 106.111 265.509 107.258 265.509C108.431 265.509 109.524 265.216 110.538 264.629C111.578 264.016 112.404 263.136 113.018 261.989C113.658 260.842 113.978 259.509 113.978 257.989ZM143.327 257.549C143.327 258.376 143.274 259.122 143.167 259.789H126.327C126.46 261.549 127.114 262.962 128.287 264.029C129.46 265.096 130.9 265.629 132.607 265.629C135.06 265.629 136.794 264.602 137.807 262.549H142.727C142.06 264.576 140.847 266.242 139.087 267.549C137.354 268.829 135.194 269.469 132.607 269.469C130.5 269.469 128.607 269.002 126.927 268.069C125.274 267.109 123.967 265.776 123.007 264.069C122.074 262.336 121.607 260.336 121.607 258.069C121.607 255.802 122.06 253.816 122.967 252.109C123.9 250.376 125.194 249.042 126.847 248.109C128.527 247.176 130.447 246.709 132.607 246.709C134.687 246.709 136.54 247.162 138.167 248.069C139.794 248.976 141.06 250.256 141.967 251.909C142.874 253.536 143.327 255.416 143.327 257.549ZM138.567 256.109C138.54 254.429 137.94 253.082 136.767 252.069C135.594 251.056 134.14 250.549 132.407 250.549C130.834 250.549 129.487 251.056 128.367 252.069C127.247 253.056 126.58 254.402 126.367 256.109H138.567ZM152.375 250.269C153.041 249.149 153.921 248.282 155.015 247.669C156.135 247.029 157.455 246.709 158.975 246.709V251.429H157.815C156.028 251.429 154.668 251.882 153.735 252.789C152.828 253.696 152.375 255.269 152.375 257.509V269.109H147.815V247.069H152.375V250.269ZM183.366 257.549C183.366 258.376 183.313 259.122 183.206 259.789H166.366C166.499 261.549 167.153 262.962 168.326 264.029C169.499 265.096 170.939 265.629 172.646 265.629C175.099 265.629 176.833 264.602 177.846 262.549H182.766C182.099 264.576 180.886 266.242 179.126 267.549C177.393 268.829 175.233 269.469 172.646 269.469C170.539 269.469 168.646 269.002 166.966 268.069C165.313 267.109 164.006 265.776 163.046 264.069C162.113 262.336 161.646 260.336 161.646 258.069C161.646 255.802 162.099 253.816 163.006 252.109C163.939 250.376 165.233 249.042 166.886 248.109C168.566 247.176 170.486 246.709 172.646 246.709C174.726 246.709 176.579 247.162 178.206 248.069C179.833 248.976 181.099 250.256 182.006 251.909C182.913 253.536 183.366 255.416 183.366 257.549ZM178.606 256.109C178.579 254.429 177.979 253.082 176.806 252.069C175.633 251.056 174.179 250.549 172.446 250.549C170.873 250.549 169.526 251.056 168.406 252.069C167.286 253.056 166.619 254.402 166.406 256.109H178.606ZM196.724 258.069C196.724 255.802 197.178 253.816 198.084 252.109C199.018 250.376 200.298 249.042 201.924 248.109C203.551 247.176 205.418 246.709 207.524 246.709C210.191 246.709 212.391 247.349 214.124 248.629C215.884 249.882 217.071 251.682 217.684 254.029H212.764C212.364 252.936 211.724 252.082 210.844 251.469C209.964 250.856 208.858 250.549 207.524 250.549C205.658 250.549 204.164 251.216 203.044 252.549C201.951 253.856 201.404 255.696 201.404 258.069C201.404 260.442 201.951 262.296 203.044 263.629C204.164 264.962 205.658 265.629 207.524 265.629C210.164 265.629 211.911 264.469 212.764 262.149H217.684C217.044 264.389 215.844 266.176 214.084 267.509C212.324 268.816 210.138 269.469 207.524 269.469C205.418 269.469 203.551 269.002 201.924 268.069C200.298 267.109 199.018 265.776 198.084 264.069C197.178 262.336 196.724 260.336 196.724 258.069ZM231.789 269.469C229.709 269.469 227.829 269.002 226.149 268.069C224.469 267.109 223.149 265.776 222.189 264.069C221.229 262.336 220.749 260.336 220.749 258.069C220.749 255.829 221.242 253.842 222.229 252.109C223.215 250.376 224.562 249.042 226.269 248.109C227.975 247.176 229.882 246.709 231.989 246.709C234.095 246.709 236.002 247.176 237.709 248.109C239.415 249.042 240.762 250.376 241.749 252.109C242.735 253.842 243.229 255.829 243.229 258.069C243.229 260.309 242.722 262.296 241.709 264.029C240.695 265.762 239.309 267.109 237.549 268.069C235.815 269.002 233.895 269.469 231.789 269.469ZM231.789 265.509C232.962 265.509 234.055 265.229 235.069 264.669C236.109 264.109 236.949 263.269 237.589 262.149C238.229 261.029 238.549 259.669 238.549 258.069C238.549 256.469 238.242 255.122 237.629 254.029C237.015 252.909 236.202 252.069 235.189 251.509C234.175 250.949 233.082 250.669 231.909 250.669C230.735 250.669 229.642 250.949 228.629 251.509C227.642 252.069 226.855 252.909 226.269 254.029C225.682 255.122 225.389 256.469 225.389 258.069C225.389 260.442 225.989 262.282 227.189 263.589C228.415 264.869 229.949 265.509 231.789 265.509ZM274.416 246.709C276.15 246.709 277.696 247.069 279.056 247.789C280.443 248.509 281.523 249.576 282.296 250.989C283.096 252.402 283.496 254.109 283.496 256.109V269.109H278.976V256.789C278.976 254.816 278.483 253.309 277.496 252.269C276.51 251.202 275.163 250.669 273.456 250.669C271.75 250.669 270.39 251.202 269.376 252.269C268.39 253.309 267.896 254.816 267.896 256.789V269.109H263.376V256.789C263.376 254.816 262.883 253.309 261.896 252.269C260.91 251.202 259.563 250.669 257.856 250.669C256.15 250.669 254.79 251.202 253.776 252.269C252.79 253.309 252.296 254.816 252.296 256.789V269.109H247.736V247.069H252.296V249.589C253.043 248.682 253.99 247.976 255.136 247.469C256.283 246.962 257.51 246.709 258.816 246.709C260.576 246.709 262.15 247.082 263.536 247.829C264.923 248.576 265.99 249.656 266.736 251.069C267.403 249.736 268.443 248.682 269.856 247.909C271.27 247.109 272.79 246.709 274.416 246.709ZM298.859 269.469C296.779 269.469 294.899 269.002 293.219 268.069C291.539 267.109 290.219 265.776 289.259 264.069C288.299 262.336 287.819 260.336 287.819 258.069C287.819 255.829 288.312 253.842 289.299 252.109C290.286 250.376 291.632 249.042 293.339 248.109C295.046 247.176 296.952 246.709 299.059 246.709C301.166 246.709 303.072 247.176 304.779 248.109C306.486 249.042 307.832 250.376 308.819 252.109C309.806 253.842 310.299 255.829 310.299 258.069C310.299 260.309 309.792 262.296 308.779 264.029C307.766 265.762 306.379 267.109 304.619 268.069C302.886 269.002 300.966 269.469 298.859 269.469ZM298.859 265.509C300.032 265.509 301.126 265.229 302.139 264.669C303.179 264.109 304.019 263.269 304.659 262.149C305.299 261.029 305.619 259.669 305.619 258.069C305.619 256.469 305.312 255.122 304.699 254.029C304.086 252.909 303.272 252.069 302.259 251.509C301.246 250.949 300.152 250.669 298.979 250.669C297.806 250.669 296.712 250.949 295.699 251.509C294.712 252.069 293.926 252.909 293.339 254.029C292.752 255.122 292.459 256.469 292.459 258.069C292.459 260.442 293.059 262.282 294.259 263.589C295.486 264.869 297.019 265.509 298.859 265.509ZM334.757 269.469C332.677 269.469 330.797 269.002 329.117 268.069C327.437 267.109 326.117 265.776 325.157 264.069C324.197 262.336 323.717 260.336 323.717 258.069C323.717 255.829 324.211 253.842 325.197 252.109C326.184 250.376 327.531 249.042 329.237 248.109C330.944 247.176 332.851 246.709 334.957 246.709C337.064 246.709 338.971 247.176 340.677 248.109C342.384 249.042 343.731 250.376 344.717 252.109C345.704 253.842 346.197 255.829 346.197 258.069C346.197 260.309 345.691 262.296 344.677 264.029C343.664 265.762 342.277 267.109 340.517 268.069C338.784 269.002 336.864 269.469 334.757 269.469ZM334.757 265.509C335.931 265.509 337.024 265.229 338.037 264.669C339.077 264.109 339.917 263.269 340.557 262.149C341.197 261.029 341.517 259.669 341.517 258.069C341.517 256.469 341.211 255.122 340.597 254.029C339.984 252.909 339.171 252.069 338.157 251.509C337.144 250.949 336.051 250.669 334.877 250.669C333.704 250.669 332.611 250.949 331.597 251.509C330.611 252.069 329.824 252.909 329.237 254.029C328.651 255.122 328.357 256.469 328.357 258.069C328.357 260.442 328.957 262.282 330.157 263.589C331.384 264.869 332.917 265.509 334.757 265.509ZM363.416 244.149C362.589 244.149 361.896 243.869 361.336 243.309C360.776 242.749 360.496 242.056 360.496 241.229C360.496 240.402 360.776 239.709 361.336 239.149C361.896 238.589 362.589 238.309 363.416 238.309C364.216 238.309 364.896 238.589 365.456 239.149C366.016 239.709 366.296 240.402 366.296 241.229C366.296 242.056 366.016 242.749 365.456 243.309C364.896 243.869 364.216 244.149 363.416 244.149ZM365.656 273.429C365.656 275.589 365.109 277.149 364.016 278.109C362.949 279.096 361.389 279.589 359.336 279.589H356.976V275.749H358.536C359.469 275.749 360.122 275.562 360.496 275.189C360.896 274.842 361.096 274.256 361.096 273.429V247.069H365.656V273.429ZM391.843 257.549C391.843 258.376 391.789 259.122 391.683 259.789H374.843C374.976 261.549 375.629 262.962 376.803 264.029C377.976 265.096 379.416 265.629 381.123 265.629C383.576 265.629 385.309 264.602 386.323 262.549H391.243C390.576 264.576 389.363 266.242 387.603 267.549C385.869 268.829 383.709 269.469 381.123 269.469C379.016 269.469 377.123 269.002 375.443 268.069C373.789 267.109 372.483 265.776 371.523 264.069C370.589 262.336 370.123 260.336 370.123 258.069C370.123 255.802 370.576 253.816 371.483 252.109C372.416 250.376 373.709 249.042 375.363 248.109C377.043 247.176 378.963 246.709 381.123 246.709C383.203 246.709 385.056 247.162 386.683 248.069C388.309 248.976 389.576 250.256 390.483 251.909C391.389 253.536 391.843 255.416 391.843 257.549ZM387.083 256.109C387.056 254.429 386.456 253.082 385.283 252.069C384.109 251.056 382.656 250.549 380.923 250.549C379.349 250.549 378.003 251.056 376.883 252.069C375.763 253.056 375.096 254.402 374.883 256.109H387.083ZM398.65 244.149C397.824 244.149 397.13 243.869 396.57 243.309C396.01 242.749 395.73 242.056 395.73 241.229C395.73 240.402 396.01 239.709 396.57 239.149C397.13 238.589 397.824 238.309 398.65 238.309C399.45 238.309 400.13 238.589 400.69 239.149C401.25 239.709 401.53 240.402 401.53 241.229C401.53 242.056 401.25 242.749 400.69 243.309C400.13 243.869 399.45 244.149 398.65 244.149ZM400.89 247.069V269.109H396.33V247.069H400.89ZM412.197 250.789V262.989C412.197 263.816 412.384 264.416 412.757 264.789C413.157 265.136 413.824 265.309 414.757 265.309H417.557V269.109H413.957C411.904 269.109 410.33 268.629 409.237 267.669C408.144 266.709 407.597 265.149 407.597 262.989V250.789H404.997V247.069H407.597V241.589H412.197V247.069H417.557V250.789H412.197ZM431.32 269.469C429.24 269.469 427.36 269.002 425.68 268.069C424 267.109 422.68 265.776 421.72 264.069C420.76 262.336 420.28 260.336 420.28 258.069C420.28 255.829 420.773 253.842 421.76 252.109C422.747 250.376 424.093 249.042 425.8 248.109C427.507 247.176 429.413 246.709 431.52 246.709C433.627 246.709 435.533 247.176 437.24 248.109C438.947 249.042 440.293 250.376 441.28 252.109C442.267 253.842 442.76 255.829 442.76 258.069C442.76 260.309 442.253 262.296 441.24 264.029C440.227 265.762 438.84 267.109 437.08 268.069C435.347 269.002 433.427 269.469 431.32 269.469ZM431.32 265.509C432.493 265.509 433.587 265.229 434.6 264.669C435.64 264.109 436.48 263.269 437.12 262.149C437.76 261.029 438.08 259.669 438.08 258.069C438.08 256.469 437.773 255.122 437.16 254.029C436.547 252.909 435.733 252.069 434.72 251.509C433.707 250.949 432.613 250.669 431.44 250.669C430.267 250.669 429.173 250.949 428.16 251.509C427.173 252.069 426.387 252.909 425.8 254.029C425.213 255.122 424.92 256.469 424.92 258.069C424.92 260.442 425.52 262.282 426.72 263.589C427.947 264.869 429.48 265.509 431.32 265.509ZM72.3019 301.309L61.8619 329.109H56.5819L46.1019 301.309H50.9819L59.2219 324.429L67.5019 301.309H72.3019ZM78.4353 304.149C77.6087 304.149 76.9153 303.869 76.3553 303.309C75.7953 302.749 75.5153 302.056 75.5153 301.229C75.5153 300.402 75.7953 299.709 76.3553 299.149C76.9153 298.589 77.6087 298.309 78.4353 298.309C79.2353 298.309 79.9153 298.589 80.4753 299.149C81.0353 299.709 81.3153 300.402 81.3153 301.229C81.3153 302.056 81.0353 302.749 80.4753 303.309C79.9153 303.869 79.2353 304.149 78.4353 304.149ZM80.6753 307.069V329.109H76.1153V307.069H80.6753ZM95.3822 318.109L105.542 329.109H99.3822L91.2222 319.629V329.109H86.6622V299.509H91.2222V316.709L99.2222 307.069H105.542L95.3822 318.109ZM111.131 304.149C110.304 304.149 109.611 303.869 109.051 303.309C108.491 302.749 108.211 302.056 108.211 301.229C108.211 300.402 108.491 299.709 109.051 299.149C109.611 298.589 110.304 298.309 111.131 298.309C111.931 298.309 112.611 298.589 113.171 299.149C113.731 299.709 114.011 300.402 114.011 301.229C114.011 302.056 113.731 302.749 113.171 303.309C112.611 303.869 111.931 304.149 111.131 304.149ZM113.371 307.069V329.109H108.811V307.069H113.371ZM130.478 306.709C132.211 306.709 133.758 307.069 135.118 307.789C136.504 308.509 137.584 309.576 138.358 310.989C139.131 312.402 139.518 314.109 139.518 316.109V329.109H134.998V316.789C134.998 314.816 134.504 313.309 133.518 312.269C132.531 311.202 131.184 310.669 129.478 310.669C127.771 310.669 126.411 311.202 125.398 312.269C124.411 313.309 123.918 314.816 123.918 316.789V329.109H119.358V307.069H123.918V309.589C124.664 308.682 125.611 307.976 126.758 307.469C127.931 306.962 129.171 306.709 130.478 306.709ZM154.214 306.709C155.921 306.709 157.427 307.056 158.734 307.749C160.067 308.416 161.107 309.256 161.854 310.269V307.069H166.454V329.469C166.454 331.496 166.027 333.296 165.174 334.869C164.321 336.469 163.081 337.722 161.454 338.629C159.854 339.536 157.934 339.989 155.694 339.989C152.707 339.989 150.227 339.282 148.254 337.869C146.281 336.482 145.161 334.589 144.894 332.189H149.414C149.761 333.336 150.494 334.256 151.614 334.949C152.761 335.669 154.121 336.029 155.694 336.029C157.534 336.029 159.014 335.469 160.134 334.349C161.281 333.229 161.854 331.602 161.854 329.469V325.789C161.081 326.829 160.027 327.709 158.694 328.429C157.387 329.122 155.894 329.469 154.214 329.469C152.294 329.469 150.534 328.989 148.934 328.029C147.361 327.042 146.107 325.682 145.174 323.949C144.267 322.189 143.814 320.202 143.814 317.989C143.814 315.776 144.267 313.816 145.174 312.109C146.107 310.402 147.361 309.082 148.934 308.149C150.534 307.189 152.294 306.709 154.214 306.709ZM161.854 318.069C161.854 316.549 161.534 315.229 160.894 314.109C160.281 312.989 159.467 312.136 158.454 311.549C157.441 310.962 156.347 310.669 155.174 310.669C154.001 310.669 152.907 310.962 151.894 311.549C150.881 312.109 150.054 312.949 149.414 314.069C148.801 315.162 148.494 316.469 148.494 317.989C148.494 319.509 148.801 320.842 149.414 321.989C150.054 323.136 150.881 324.016 151.894 324.629C152.934 325.216 154.027 325.509 155.174 325.509C156.347 325.509 157.441 325.216 158.454 324.629C159.467 324.042 160.281 323.189 160.894 322.069C161.534 320.922 161.854 319.589 161.854 318.069ZM181.314 317.989C181.314 315.776 181.767 313.816 182.674 312.109C183.607 310.402 184.861 309.082 186.434 308.149C188.034 307.189 189.807 306.709 191.754 306.709C193.194 306.709 194.607 307.029 195.994 307.669C197.407 308.282 198.527 309.109 199.354 310.149V299.509H203.954V329.109H199.354V325.789C198.607 326.856 197.567 327.736 196.234 328.429C194.927 329.122 193.421 329.469 191.714 329.469C189.794 329.469 188.034 328.989 186.434 328.029C184.861 327.042 183.607 325.682 182.674 323.949C181.767 322.189 181.314 320.202 181.314 317.989ZM199.354 318.069C199.354 316.549 199.034 315.229 198.394 314.109C197.781 312.989 196.967 312.136 195.954 311.549C194.941 310.962 193.847 310.669 192.674 310.669C191.501 310.669 190.407 310.962 189.394 311.549C188.381 312.109 187.554 312.949 186.914 314.069C186.301 315.162 185.994 316.469 185.994 317.989C185.994 319.509 186.301 320.842 186.914 321.989C187.554 323.136 188.381 324.016 189.394 324.629C190.434 325.216 191.527 325.509 192.674 325.509C193.847 325.509 194.941 325.216 195.954 324.629C196.967 324.042 197.781 323.189 198.394 322.069C199.034 320.922 199.354 319.589 199.354 318.069ZM230.143 317.549C230.143 318.376 230.09 319.122 229.983 319.789H213.143C213.277 321.549 213.93 322.962 215.103 324.029C216.277 325.096 217.717 325.629 219.423 325.629C221.877 325.629 223.61 324.602 224.623 322.549H229.543C228.877 324.576 227.663 326.242 225.903 327.549C224.17 328.829 222.01 329.469 219.423 329.469C217.317 329.469 215.423 329.002 213.743 328.069C212.09 327.109 210.783 325.776 209.823 324.069C208.89 322.336 208.423 320.336 208.423 318.069C208.423 315.802 208.877 313.816 209.783 312.109C210.717 310.376 212.01 309.042 213.663 308.109C215.343 307.176 217.263 306.709 219.423 306.709C221.503 306.709 223.357 307.162 224.983 308.069C226.61 308.976 227.877 310.256 228.783 311.909C229.69 313.536 230.143 315.416 230.143 317.549ZM225.383 316.109C225.357 314.429 224.757 313.082 223.583 312.069C222.41 311.056 220.957 310.549 219.223 310.549C217.65 310.549 216.303 311.056 215.183 312.069C214.063 313.056 213.397 314.402 213.183 316.109H225.383ZM253.022 329.469C251.288 329.469 249.728 329.162 248.342 328.549C246.982 327.909 245.902 327.056 245.102 325.989C244.302 324.896 243.875 323.682 243.822 322.349H248.542C248.622 323.282 249.062 324.069 249.862 324.709C250.688 325.322 251.715 325.629 252.942 325.629C254.222 325.629 255.208 325.389 255.902 324.909C256.622 324.402 256.982 323.762 256.982 322.989C256.982 322.162 256.582 321.549 255.782 321.149C255.008 320.749 253.768 320.309 252.062 319.829C250.408 319.376 249.062 318.936 248.022 318.509C246.982 318.082 246.075 317.429 245.302 316.549C244.555 315.669 244.182 314.509 244.182 313.069C244.182 311.896 244.528 310.829 245.222 309.869C245.915 308.882 246.902 308.109 248.182 307.549C249.488 306.989 250.982 306.709 252.662 306.709C255.168 306.709 257.182 307.349 258.702 308.629C260.248 309.882 261.075 311.602 261.182 313.789H256.622C256.542 312.802 256.142 312.016 255.422 311.429C254.702 310.842 253.728 310.549 252.502 310.549C251.302 310.549 250.382 310.776 249.742 311.229C249.102 311.682 248.782 312.282 248.782 313.029C248.782 313.616 248.995 314.109 249.422 314.509C249.848 314.909 250.368 315.229 250.982 315.469C251.595 315.682 252.502 315.962 253.702 316.309C255.302 316.736 256.608 317.176 257.622 317.629C258.662 318.056 259.555 318.696 260.302 319.549C261.048 320.402 261.435 321.536 261.462 322.949C261.462 324.202 261.115 325.322 260.422 326.309C259.728 327.296 258.742 328.069 257.462 328.629C256.208 329.189 254.728 329.469 253.022 329.469ZM286.589 317.549C286.589 318.376 286.535 319.122 286.429 319.789H269.589C269.722 321.549 270.375 322.962 271.549 324.029C272.722 325.096 274.162 325.629 275.869 325.629C278.322 325.629 280.055 324.602 281.069 322.549H285.989C285.322 324.576 284.109 326.242 282.349 327.549C280.615 328.829 278.455 329.469 275.869 329.469C273.762 329.469 271.869 329.002 270.189 328.069C268.535 327.109 267.229 325.776 266.269 324.069C265.335 322.336 264.869 320.336 264.869 318.069C264.869 315.802 265.322 313.816 266.229 312.109C267.162 310.376 268.455 309.042 270.109 308.109C271.789 307.176 273.709 306.709 275.869 306.709C277.949 306.709 279.802 307.162 281.429 308.069C283.055 308.976 284.322 310.256 285.229 311.909C286.135 313.536 286.589 315.416 286.589 317.549ZM281.829 316.109C281.802 314.429 281.202 313.082 280.029 312.069C278.855 311.056 277.402 310.549 275.669 310.549C274.095 310.549 272.749 311.056 271.629 312.069C270.509 313.056 269.842 314.402 269.629 316.109H281.829ZM295.636 310.269C296.303 309.149 297.183 308.282 298.276 307.669C299.396 307.029 300.716 306.709 302.236 306.709V311.429H301.076C299.29 311.429 297.93 311.882 296.996 312.789C296.09 313.696 295.636 315.269 295.636 317.509V329.109H291.076V307.069H295.636V310.269ZM311.428 323.629L306.588 334.669H303.628L306.468 323.629H311.428ZM335.043 310.789H330.963V329.109H326.363V310.789H323.763V307.069H326.363V305.509C326.363 302.976 327.029 301.136 328.363 299.989C329.723 298.816 331.843 298.229 334.723 298.229V302.029C333.336 302.029 332.363 302.296 331.803 302.829C331.243 303.336 330.963 304.229 330.963 305.509V307.069H335.043V310.789ZM348.644 329.469C346.564 329.469 344.684 329.002 343.004 328.069C341.324 327.109 340.004 325.776 339.044 324.069C338.084 322.336 337.604 320.336 337.604 318.069C337.604 315.829 338.097 313.842 339.084 312.109C340.071 310.376 341.417 309.042 343.124 308.109C344.831 307.176 346.737 306.709 348.844 306.709C350.951 306.709 352.857 307.176 354.564 308.109C356.271 309.042 357.617 310.376 358.604 312.109C359.591 313.842 360.084 315.829 360.084 318.069C360.084 320.309 359.577 322.296 358.564 324.029C357.551 325.762 356.164 327.109 354.404 328.069C352.671 329.002 350.751 329.469 348.644 329.469ZM348.644 325.509C349.817 325.509 350.911 325.229 351.924 324.669C352.964 324.109 353.804 323.269 354.444 322.149C355.084 321.029 355.404 319.669 355.404 318.069C355.404 316.469 355.097 315.122 354.484 314.029C353.871 312.909 353.057 312.069 352.044 311.509C351.031 310.949 349.937 310.669 348.764 310.669C347.591 310.669 346.497 310.949 345.484 311.509C344.497 312.069 343.711 312.909 343.124 314.029C342.537 315.122 342.244 316.469 342.244 318.069C342.244 320.442 342.844 322.282 344.044 323.589C345.271 324.869 346.804 325.509 348.644 325.509ZM369.152 310.269C369.819 309.149 370.699 308.282 371.792 307.669C372.912 307.029 374.232 306.709 375.752 306.709V311.429H374.592C372.805 311.429 371.445 311.882 370.512 312.789C369.605 313.696 369.152 315.269 369.152 317.509V329.109H364.592V307.069H369.152V310.269ZM385.263 310.789V322.989C385.263 323.816 385.45 324.416 385.823 324.789C386.223 325.136 386.89 325.309 387.823 325.309H390.623V329.109H387.023C384.97 329.109 383.397 328.629 382.303 327.669C381.21 326.709 380.663 325.149 380.663 322.989V310.789H378.063V307.069H380.663V301.589H385.263V307.069H390.623V310.789H385.263ZM415.026 317.549C415.026 318.376 414.973 319.122 414.866 319.789H398.026C398.16 321.549 398.813 322.962 399.986 324.029C401.16 325.096 402.6 325.629 404.306 325.629C406.76 325.629 408.493 324.602 409.506 322.549H414.426C413.76 324.576 412.546 326.242 410.786 327.549C409.053 328.829 406.893 329.469 404.306 329.469C402.2 329.469 400.306 329.002 398.626 328.069C396.973 327.109 395.666 325.776 394.706 324.069C393.773 322.336 393.306 320.336 393.306 318.069C393.306 315.802 393.76 313.816 394.666 312.109C395.6 310.376 396.893 309.042 398.546 308.109C400.226 307.176 402.146 306.709 404.306 306.709C406.386 306.709 408.24 307.162 409.866 308.069C411.493 308.976 412.76 310.256 413.666 311.909C414.573 313.536 415.026 315.416 415.026 317.549ZM410.266 316.109C410.24 314.429 409.64 313.082 408.466 312.069C407.293 311.056 405.84 310.549 404.106 310.549C402.533 310.549 401.186 311.056 400.066 312.069C398.946 313.056 398.28 314.402 398.066 316.109H410.266ZM424.514 323.629L419.674 334.669H416.714L419.554 323.629H424.514ZM459.089 317.549C459.089 318.376 459.035 319.122 458.929 319.789H442.089C442.222 321.549 442.875 322.962 444.049 324.029C445.222 325.096 446.662 325.629 448.369 325.629C450.822 325.629 452.555 324.602 453.569 322.549H458.489C457.822 324.576 456.609 326.242 454.849 327.549C453.115 328.829 450.955 329.469 448.369 329.469C446.262 329.469 444.369 329.002 442.689 328.069C441.035 327.109 439.729 325.776 438.769 324.069C437.835 322.336 437.369 320.336 437.369 318.069C437.369 315.802 437.822 313.816 438.729 312.109C439.662 310.376 440.955 309.042 442.609 308.109C444.289 307.176 446.209 306.709 448.369 306.709C450.449 306.709 452.302 307.162 453.929 308.069C455.555 308.976 456.822 310.256 457.729 311.909C458.635 313.536 459.089 315.416 459.089 317.549ZM454.329 316.109C454.302 314.429 453.702 313.082 452.529 312.069C451.355 311.056 449.902 310.549 448.169 310.549C446.595 310.549 445.249 311.056 444.129 312.069C443.009 313.056 442.342 314.402 442.129 316.109H454.329ZM154.744 364.149C153.917 364.149 153.224 363.869 152.664 363.309C152.104 362.749 151.824 362.056 151.824 361.229C151.824 360.402 152.104 359.709 152.664 359.149C153.224 358.589 153.917 358.309 154.744 358.309C155.544 358.309 156.224 358.589 156.784 359.149C157.344 359.709 157.624 360.402 157.624 361.229C157.624 362.056 157.344 362.749 156.784 363.309C156.224 363.869 155.544 364.149 154.744 364.149ZM156.984 367.069V389.109H152.424V367.069H156.984ZM189.651 366.709C191.384 366.709 192.931 367.069 194.291 367.789C195.677 368.509 196.757 369.576 197.531 370.989C198.331 372.402 198.731 374.109 198.731 376.109V389.109H194.211V376.789C194.211 374.816 193.717 373.309 192.731 372.269C191.744 371.202 190.397 370.669 188.691 370.669C186.984 370.669 185.624 371.202 184.611 372.269C183.624 373.309 183.131 374.816 183.131 376.789V389.109H178.611V376.789C178.611 374.816 178.117 373.309 177.131 372.269C176.144 371.202 174.797 370.669 173.091 370.669C171.384 370.669 170.024 371.202 169.011 372.269C168.024 373.309 167.531 374.816 167.531 376.789V389.109H162.971V367.069H167.531V369.589C168.277 368.682 169.224 367.976 170.371 367.469C171.517 366.962 172.744 366.709 174.051 366.709C175.811 366.709 177.384 367.082 178.771 367.829C180.157 368.576 181.224 369.656 181.971 371.069C182.637 369.736 183.677 368.682 185.091 367.909C186.504 367.109 188.024 366.709 189.651 366.709ZM209.093 370.309C209.867 369.296 210.92 368.442 212.253 367.749C213.587 367.056 215.093 366.709 216.773 366.709C218.693 366.709 220.44 367.189 222.013 368.149C223.613 369.082 224.867 370.402 225.773 372.109C226.68 373.816 227.133 375.776 227.133 377.989C227.133 380.202 226.68 382.189 225.773 383.949C224.867 385.682 223.613 387.042 222.013 388.029C220.44 388.989 218.693 389.469 216.773 389.469C215.093 389.469 213.6 389.136 212.293 388.469C210.987 387.776 209.92 386.922 209.093 385.909V399.589H204.533V367.069H209.093V370.309ZM222.493 377.989C222.493 376.469 222.173 375.162 221.533 374.069C220.92 372.949 220.093 372.109 219.053 371.549C218.04 370.962 216.947 370.669 215.773 370.669C214.627 370.669 213.533 370.962 212.493 371.549C211.48 372.136 210.653 372.989 210.013 374.109C209.4 375.229 209.093 376.549 209.093 378.069C209.093 379.589 209.4 380.922 210.013 382.069C210.653 383.189 211.48 384.042 212.493 384.629C213.533 385.216 214.627 385.509 215.773 385.509C216.947 385.509 218.04 385.216 219.053 384.629C220.093 384.016 220.92 383.136 221.533 381.989C222.173 380.842 222.493 379.509 222.493 377.989ZM230.123 377.989C230.123 375.776 230.576 373.816 231.483 372.109C232.416 370.402 233.669 369.082 235.243 368.149C236.843 367.189 238.603 366.709 240.523 366.709C242.256 366.709 243.763 367.056 245.043 367.749C246.349 368.416 247.389 369.256 248.163 370.269V367.069H252.763V389.109H248.163V385.829C247.389 386.869 246.336 387.736 245.003 388.429C243.669 389.122 242.149 389.469 240.443 389.469C238.549 389.469 236.816 388.989 235.243 388.029C233.669 387.042 232.416 385.682 231.483 383.949C230.576 382.189 230.123 380.202 230.123 377.989ZM248.163 378.069C248.163 376.549 247.843 375.229 247.203 374.109C246.589 372.989 245.776 372.136 244.763 371.549C243.749 370.962 242.656 370.669 241.483 370.669C240.309 370.669 239.216 370.962 238.203 371.549C237.189 372.109 236.363 372.949 235.723 374.069C235.109 375.162 234.803 376.469 234.803 377.989C234.803 379.509 235.109 380.842 235.723 381.989C236.363 383.136 237.189 384.016 238.203 384.629C239.243 385.216 240.336 385.509 241.483 385.509C242.656 385.509 243.749 385.216 244.763 384.629C245.776 384.042 246.589 383.189 247.203 382.069C247.843 380.922 248.163 379.589 248.163 378.069ZM263.312 370.269C263.979 369.149 264.859 368.282 265.952 367.669C267.072 367.029 268.392 366.709 269.912 366.709V371.429H268.752C266.965 371.429 265.605 371.882 264.672 372.789C263.765 373.696 263.312 375.269 263.312 377.509V389.109H258.752V367.069H263.312V370.269ZM272.584 377.989C272.584 375.776 273.037 373.816 273.944 372.109C274.877 370.402 276.13 369.082 277.704 368.149C279.304 367.189 281.064 366.709 282.984 366.709C284.717 366.709 286.224 367.056 287.504 367.749C288.81 368.416 289.85 369.256 290.624 370.269V367.069H295.224V389.109H290.624V385.829C289.85 386.869 288.797 387.736 287.464 388.429C286.13 389.122 284.61 389.469 282.904 389.469C281.01 389.469 279.277 388.989 277.704 388.029C276.13 387.042 274.877 385.682 273.944 383.949C273.037 382.189 272.584 380.202 272.584 377.989ZM290.624 378.069C290.624 376.549 290.304 375.229 289.664 374.109C289.05 372.989 288.237 372.136 287.224 371.549C286.21 370.962 285.117 370.669 283.944 370.669C282.77 370.669 281.677 370.962 280.664 371.549C279.65 372.109 278.824 372.949 278.184 374.069C277.57 375.162 277.264 376.469 277.264 377.989C277.264 379.509 277.57 380.842 278.184 381.989C278.824 383.136 279.65 384.016 280.664 384.629C281.704 385.216 282.797 385.509 283.944 385.509C285.117 385.509 286.21 385.216 287.224 384.629C288.237 384.042 289.05 383.189 289.664 382.069C290.304 380.922 290.624 379.589 290.624 378.069ZM309.733 385.029L315.973 367.069H320.813L312.413 389.109H306.973L298.613 367.069H303.493L309.733 385.029ZM344.46 377.549C344.46 378.376 344.407 379.122 344.3 379.789H327.46C327.593 381.549 328.247 382.962 329.42 384.029C330.593 385.096 332.033 385.629 333.74 385.629C336.193 385.629 337.927 384.602 338.94 382.549H343.86C343.193 384.576 341.98 386.242 340.22 387.549C338.487 388.829 336.327 389.469 333.74 389.469C331.633 389.469 329.74 389.002 328.06 388.069C326.407 387.109 325.1 385.776 324.14 384.069C323.207 382.336 322.74 380.336 322.74 378.069C322.74 375.802 323.193 373.816 324.1 372.109C325.033 370.376 326.327 369.042 327.98 368.109C329.66 367.176 331.58 366.709 333.74 366.709C335.82 366.709 337.673 367.162 339.3 368.069C340.927 368.976 342.193 370.256 343.1 371.909C344.007 373.536 344.46 375.416 344.46 377.549ZM339.7 376.109C339.673 374.429 339.073 373.082 337.9 372.069C336.727 371.056 335.273 370.549 333.54 370.549C331.967 370.549 330.62 371.056 329.5 372.069C328.38 373.056 327.713 374.402 327.5 376.109H339.7ZM353.507 359.509V389.109H348.947V359.509H353.507Z" fill="white"/>
<line x1="68.8635" y1="214.109" x2="436.136" y2="214.109" stroke="white" stroke-width="4"/>
</svg>
